<svg id="visual" viewBox="0 0 1920 1080" width="1920" height="1080" xmlns="http://www.w3.org/2000/svg" xmlns:xlink="http://www.w3.org/1999/xlink" version="1.1"><rect x="0" y="0" width="1920" height="1080" fill="#242424"></rect><path d="M1011 1080L1003 1054.3C995 1028.7 979 977.3 954 925.8C929 874.3 895 822.7 925.3 771.2C955.7 719.7 1050.3 668.3 1099.3 617C1148.3 565.7 1151.7 514.3 1149.2 463C1146.7 411.7 1138.3 360.3 1131.8 308.8C1125.3 257.3 1120.7 205.7 1067.2 154.2C1013.7 102.7 911.3 51.3 860.2 25.7L809 0L1920 0L1920 25.7C1920 51.3 1920 102.7 1920 154.2C1920 205.7 1920 257.3 1920 308.8C1920 360.3 1920 411.7 1920 463C1920 514.3 1920 565.7 1920 617C1920 668.3 1920 719.7 1920 771.2C1920 822.7 1920 874.3 1920 925.8C1920 977.3 1920 1028.7 1920 1054.3L1920 1080Z" fill="#0066ff"></path><path d="M1122 1080L1115.3 1054.3C1108.7 1028.7 1095.3 977.3 1097 925.8C1098.7 874.3 1115.3 822.7 1149.3 771.2C1183.3 719.7 1234.7 668.3 1242.8 617C1251 565.7 1216 514.3 1176.7 463C1137.3 411.7 1093.7 360.3 1093.3 308.8C1093 257.3 1136 205.7 1127.3 154.2C1118.7 102.7 1058.3 51.3 1028.2 25.7L998 0L1920 0L1920 25.7C1920 51.3 1920 102.7 1920 154.2C1920 205.7 1920 257.3 1920 308.8C1920 360.3 1920 411.7 1920 463C1920 514.3 1920 565.7 1920 617C1920 668.3 1920 719.7 1920 771.2C1920 822.7 1920 874.3 1920 925.8C1920 977.3 1920 1028.7 1920 1054.3L1920 1080Z" fill="#007aff"></path><path d="M1492 1080L1485.8 1054.3C1479.7 1028.7 1467.3 977.3 1442.7 925.8C1418 874.3 1381 822.7 1373 771.2C1365 719.7 1386 668.3 1369.7 617C1353.3 565.7 1299.7 514.3 1309.5 463C1319.3 411.7 1392.7 360.3 1416.7 308.8C1440.7 257.3 1415.3 205.7 1425.7 154.2C1436 102.7 1482 51.3 1505 25.7L1528 0L1920 0L1920 25.7C1920 51.3 1920 102.7 1920 154.2C1920 205.7 1920 257.3 1920 308.8C1920 360.3 1920 411.7 1920 463C1920 514.3 1920 565.7 1920 617C1920 668.3 1920 719.7 1920 771.2C1920 822.7 1920 874.3 1920 925.8C1920 977.3 1920 1028.7 1920 1054.3L1920 1080Z" fill="#008cff"></path><path d="M1589 1080L1576.3 1054.3C1563.7 1028.7 1538.3 977.3 1549.2 925.8C1560 874.3 1607 822.7 1594 771.2C1581 719.7 1508 668.3 1492.8 617C1477.7 565.7 1520.3 514.3 1524.8 463C1529.3 411.7 1495.7 360.3 1481.2 308.8C1466.7 257.3 1471.3 205.7 1499 154.2C1526.7 102.7 1577.3 51.3 1602.7 25.7L1628 0L1920 0L1920 25.7C1920 51.3 1920 102.7 1920 154.2C1920 205.7 1920 257.3 1920 308.8C1920 360.3 1920 411.7 1920 463C1920 514.3 1920 565.7 1920 617C1920 668.3 1920 719.7 1920 771.2C1920 822.7 1920 874.3 1920 925.8C1920 977.3 1920 1028.7 1920 1054.3L1920 1080Z" fill="#2b9dfc"></path><path d="M1807 1080L1786.3 1054.3C1765.7 1028.7 1724.3 977.3 1699.2 925.8C1674 874.3 1665 822.7 1655.2 771.2C1645.3 719.7 1634.7 668.3 1631.3 617C1628 565.7 1632 514.3 1643.2 463C1654.3 411.7 1672.7 360.3 1686.2 308.8C1699.7 257.3 1708.3 205.7 1695.3 154.2C1682.3 102.7 1647.7 51.3 1630.3 25.7L1613 0L1920 0L1920 25.7C1920 51.3 1920 102.7 1920 154.2C1920 205.7 1920 257.3 1920 308.8C1920 360.3 1920 411.7 1920 463C1920 514.3 1920 565.7 1920 617C1920 668.3 1920 719.7 1920 771.2C1920 822.7 1920 874.3 1920 925.8C1920 977.3 1920 1028.7 1920 1054.3L1920 1080Z" fill="#4facf7"></path></svg>