<svg xmlns="http://www.w3.org/2000/svg" viewBox="0 0 340 99.68"><defs><style>.cls-1{font-size:72px;font-family:Gotham-ThinItalic, Gotham Thin;font-weight:200;font-style:italic;}</style></defs><g id="Layer_2" data-name="Layer 2"><g id="Layer_1-2" data-name="Layer 1"><text class="cls-1" transform="translate(77.7 87.66)">eibooru</text><path d="M42,12.79c-11.51,16.9-24.24,44-38.1,47.09a.79.79,0,0,1-.8-.3c-5.1-6.89,23-34,37.68-47.84A.81.81,0,0,1,42,12.79Z"/><path d="M19.36,73.25c-2.61-1.09-7.26-2.84-8.42-5.88a9.29,9.29,0,0,0-1.32-2.44C-2.59,49.53-6.87,82.5,19.36,75.14,20.45,74.83,20.4,73.68,19.36,73.25Z"/><path d="M2.32,72.15l5.25-5.5c8,9.42,18.76,18.95,33.21,18.95,20.18,0,30.27-11.13,30.27-21,0-11.74-12.4-16.14-25.36-20.67s-25.5-9-25.5-20.91c0-11.49,11.73-23,33.14-23C66.69,0,81.85.6,89.62,8.18l-2.36,8.49C80,9.57,65.74,2.45,53.05,2.45,34,2.45,23.19,12.6,23.19,22.75c0,10.39,12.14,14.79,24.41,19,13.23,4.4,26.46,9.54,26.46,22.62,0,11.25-10.78,23.73-33.55,23.73C25.23,88.05,10.64,81.93,2.32,72.15Z"/></g></g></svg>